<svg width="586" height="144" viewBox="0 0 586 144" fill="none" xmlns="http://www.w3.org/2000/svg">
<rect width="586" height="144" rx="15" fill="#2D2926"/>
<mask id="mask0_601_451" style="mask-type:alpha" maskUnits="userSpaceOnUse" x="0" y="0" width="586" height="144">
<rect width="586" height="144" rx="15" fill="#2D2926"/>
</mask>
<g mask="url(#mask0_601_451)">
<path d="M1259.67 -47C1259.67 324.135 966.888 625 605.718 625C244.548 625 -48.2383 324.135 -48.2383 -47C-48.2383 -418.135 244.548 -719 605.718 -719C966.888 -719 1259.67 -418.135 1259.67 -47Z" fill="#534238"/>
<path d="M1152.32 -49C1152.32 260.279 908.482 511 607.688 511C306.894 511 63.0525 260.279 63.0525 -49C63.0525 -358.279 306.894 -609 607.688 -609C908.482 -609 1152.32 -358.279 1152.32 -49Z" fill="#4C3F37"/>
<path d="M1041.03 -49C1041.03 197.319 847.017 397 607.688 397C368.358 397 174.343 197.319 174.343 -49C174.343 -295.319 368.358 -495 607.688 -495C847.017 -495 1041.03 -295.319 1041.03 -49Z" fill="#463C36"/>
<path d="M923.832 -49C923.832 130.493 782.29 276 607.688 276C433.086 276 291.543 130.493 291.543 -49C291.543 -228.493 433.086 -374 607.688 -374C782.29 -374 923.832 -228.493 923.832 -49Z" fill="#423934"/>
<path d="M827.315 -49C827.315 75.8163 728.984 177 607.688 177C486.391 177 388.061 75.8163 388.061 -49C388.061 -173.816 486.391 -275 607.688 -275C728.984 -275 827.315 -173.816 827.315 -49Z" fill="#3A332F"/>
<path fill-rule="evenodd" clip-rule="evenodd" d="M0 91L33.1689 97C65.3328 103 130.666 115 195.998 112C261.331 109 327.669 91 393.002 77C458.334 62 523.667 50 555.831 44L589 38V144H555.831C523.667 144 458.334 144 393.002 144C327.669 144 261.331 144 195.998 144C130.666 144 65.3328 144 33.1689 144H0V91Z" fill="#2D2926" fill-opacity="0.24"/>
</g>
</svg>
