<svg width="791" height="791" viewBox="0 0 791 791" fill="none" xmlns="http://www.w3.org/2000/svg">
<path fill-rule="evenodd" clip-rule="evenodd" d="M395.5 0C500.358 0.113412 600.89 41.8188 675.036 115.965C749.182 190.111 790.887 290.642 791 395.5C791 473.723 767.805 550.189 724.347 615.229C680.889 680.268 619.12 730.96 546.852 760.895C474.583 790.829 395.061 798.661 318.342 783.4C241.623 768.14 171.151 730.473 115.84 675.161C60.5283 619.849 22.8601 549.378 7.59968 472.658C-7.66076 395.939 0.171106 316.417 30.1055 244.148C60.04 171.88 110.733 110.111 175.773 66.6533C240.812 23.1955 317.278 6.63669e-05 395.5 0ZM395.5 65.917C333.119 65.8642 272.006 83.5299 219.274 116.858C166.543 150.187 124.362 197.807 97.6417 254.176C70.9215 310.544 60.7611 373.343 68.3428 435.262C75.9247 497.18 100.938 555.672 140.469 603.929L280.175 456.913C282.05 458.828 284.368 460.943 286.986 462.906C290.396 465.464 295.144 469.044 301.505 472.277C303.611 473.346 305.837 474.433 308.055 475.469C308.041 476.019 308.048 476.535 308.071 477.009C308.27 481.221 309.598 484.705 310.148 486.11C310.807 487.791 311.642 489.57 311.986 490.322C312.513 491.475 312.542 491.606 312.469 491.386C312.771 492.3 313.139 493.192 313.57 494.053C315.005 496.923 316.947 500.098 319.624 503.191C319.929 503.542 320.245 503.883 320.573 504.212C321.567 505.211 322.567 506.071 323.565 506.839L187.071 650.531C245.805 698.79 319.483 725.144 395.5 725.083C457.881 725.136 518.994 707.47 571.726 674.142C624.457 640.813 666.638 593.193 693.358 536.824C720.079 480.456 730.239 417.657 722.657 355.738C715.075 293.82 690.064 235.328 650.532 187.071L503.989 338.494C503.782 338.133 503.574 337.78 503.363 337.438C502.927 334.467 501.794 328.145 499.297 322.78C498.471 321.005 496.295 315.787 492.118 310.028C487.996 304.345 482.248 298.462 473.978 292.726L473.169 292.172L472.781 291.912C471.769 291.243 470.014 290.17 467.812 289.347C466.642 288.91 464.319 288.146 461.296 288.027L603.929 140.469C545.195 92.2095 471.517 65.8564 395.5 65.917Z" fill="black"/>
<path d="M605 500.012C604.635 586.73 532.06 623.235 445.133 596.414C316.406 564.193 111.029 343.489 215.581 215.581C353.661 102.808 610.225 350.995 605 500.012ZM221.834 292.04C226.188 406.45 348.975 531.171 454.938 563.008C497.627 575.566 532.025 571.577 551.793 551.792C644.658 433.359 358.659 147.342 240.208 240.208C233.849 247.189 228.948 255.37 225.793 264.27C222.637 273.171 221.291 282.612 221.834 292.04ZM430.834 343.75C419.256 343.214 407.693 345.1 396.885 349.287C386.077 353.474 376.261 359.869 368.066 368.065C359.87 376.261 353.474 386.077 349.287 396.885C345.101 407.693 343.215 419.255 343.75 430.833C343.75 435.453 345.585 439.883 348.852 443.149C352.118 446.415 356.548 448.25 361.167 448.25C365.786 448.25 370.216 446.415 373.483 443.149C376.749 439.883 378.584 435.453 378.584 430.833C378.012 423.827 378.972 416.78 381.396 410.181C383.819 403.583 387.649 397.59 392.62 392.62C397.591 387.649 403.583 383.819 410.182 381.395C416.781 378.971 423.827 378.012 430.834 378.583C435.453 378.583 439.883 376.748 443.149 373.482C446.415 370.216 448.25 365.786 448.25 361.167C448.25 356.547 446.415 352.117 443.149 348.851C439.883 345.585 435.453 343.75 430.834 343.75ZM361.167 274.083C349.589 273.548 338.026 275.433 327.218 279.62C316.41 283.807 306.595 290.203 298.399 298.399C290.203 306.594 283.808 316.41 279.621 327.218C275.434 338.026 273.548 349.588 274.084 361.167C274.084 365.786 275.919 370.216 279.185 373.482C282.451 376.748 286.881 378.583 291.5 378.583C296.12 378.583 300.55 376.748 303.816 373.482C307.082 370.216 308.917 365.786 308.917 361.167C308.346 354.16 309.305 347.113 311.729 340.515C314.153 333.916 317.983 327.924 322.953 322.953C327.924 317.982 333.917 314.152 340.515 311.728C347.114 309.305 354.161 308.345 361.167 308.917C365.786 308.917 370.216 307.082 373.483 303.815C376.749 300.549 378.584 296.119 378.584 291.5C378.584 286.881 376.749 282.451 373.483 279.185C370.216 275.918 365.786 274.083 361.167 274.083ZM500.5 413.417C488.922 412.881 477.36 414.767 466.552 418.954C455.744 423.14 445.928 429.536 437.732 437.732C429.537 445.928 423.141 455.743 418.954 466.551C414.767 477.359 412.881 488.922 413.417 500.5C413.417 505.119 415.252 509.549 418.518 512.815C421.785 516.082 426.215 517.917 430.834 517.917C435.453 517.917 439.883 516.082 443.149 512.815C446.415 509.549 448.25 505.119 448.25 500.5C447.679 493.494 448.639 486.447 451.062 479.848C453.486 473.249 457.316 467.257 462.287 462.286C467.258 457.316 473.25 453.486 479.849 451.062C486.447 448.638 493.494 447.679 500.5 448.25C505.12 448.25 509.55 446.415 512.816 443.149C516.082 439.883 517.917 435.453 517.917 430.833C517.917 426.214 516.082 421.784 512.816 418.518C509.55 415.252 505.12 413.417 500.5 413.417Z" fill="black"/>
</svg>
