<svg width="791" height="791" viewBox="0 0 791 791" fill="none" xmlns="http://www.w3.org/2000/svg">
<path fill-rule="evenodd" clip-rule="evenodd" d="M395.5 0C500.358 0.113412 600.89 41.8188 675.036 115.965C749.182 190.111 790.887 290.642 791 395.5C791 473.723 767.805 550.189 724.347 615.229C680.889 680.268 619.12 730.96 546.852 760.895C474.583 790.829 395.061 798.661 318.342 783.4C241.623 768.14 171.151 730.473 115.84 675.161C60.5283 619.849 22.8601 549.378 7.59969 472.658C-7.66076 395.939 0.171095 316.417 30.1055 244.148C60.04 171.88 110.733 110.111 175.773 66.6533C240.812 23.1954 317.278 3.61982e-05 395.5 0ZM395.5 65.917C333.119 65.8642 272.006 83.5299 219.274 116.858C166.543 150.187 124.362 197.807 97.6417 254.176C70.9215 310.544 60.7611 373.343 68.3428 435.262C75.9247 497.18 100.937 555.672 140.469 603.929L291.588 452.809L338.191 499.411L187.071 650.531C245.805 698.79 319.483 725.144 395.5 725.083C457.881 725.136 518.994 707.47 571.726 674.142C624.457 640.813 666.638 593.193 693.358 536.824C720.079 480.456 730.239 417.657 722.657 355.738C715.075 293.82 690.064 235.328 650.532 187.071L506.237 331.364L459.635 284.762L603.929 140.469C545.195 92.2095 471.518 65.8564 395.5 65.917Z" fill="black"/>
<path d="M207.281 207.299C175.711 239.156 158 282.187 158 327.033C158 371.878 175.711 414.91 207.281 446.766C254.429 493.906 364.158 509.375 425.469 514.392C442.695 515.772 459.921 511.714 474.72 502.791L550.094 578.151C544.974 580.949 540.79 585.191 538.063 590.348C535.336 595.505 534.186 601.35 534.755 607.156C535.324 612.962 537.589 618.472 541.266 623.001C544.943 627.53 549.871 630.878 555.437 632.629C561.003 634.38 566.961 634.455 572.569 632.847C578.178 631.238 583.19 628.017 586.981 623.583C590.772 619.149 593.176 613.698 593.893 607.908C594.61 602.119 593.609 596.247 591.014 591.022C596.24 593.616 602.113 594.617 607.904 593.901C613.694 593.184 619.146 590.78 623.581 586.99C628.016 583.199 631.238 578.188 632.847 572.581C634.455 566.973 634.38 561.016 632.629 555.452C630.878 549.887 627.529 544.96 622.999 541.283C618.469 537.606 612.958 535.342 607.151 534.773C601.344 534.204 595.498 535.354 590.34 538.081C585.182 540.807 580.94 544.99 578.141 550.109L502.767 474.749C511.78 459.978 515.89 442.735 514.509 425.487C509.491 364.287 494.039 254.598 446.871 207.339C415.013 175.741 371.959 158.007 327.084 158C282.209 157.993 239.149 175.712 207.281 207.299ZM418.764 235.361C446.236 262.868 467.242 335.094 474.918 428.601C475.456 434.815 474.628 441.071 472.492 446.931C470.356 452.791 466.963 458.113 462.552 462.524C458.141 466.934 452.818 470.326 446.957 472.462C441.095 474.598 434.838 475.426 428.623 474.888C335.099 467.213 262.82 446.211 235.348 418.744C223.089 406.751 213.332 392.446 206.64 376.657C199.948 360.868 196.455 343.909 196.362 326.762C196.269 309.614 199.578 292.618 206.099 276.758C212.619 260.898 222.221 246.488 234.349 234.363C246.477 222.237 260.889 212.637 276.752 206.118C292.615 199.598 309.614 196.289 326.765 196.382C343.916 196.475 360.878 199.968 376.67 206.659C392.461 213.349 406.769 223.105 418.764 235.361Z" fill="black"/>
</svg>
