<svg width="839" height="839" viewBox="0 0 839 839" fill="none" xmlns="http://www.w3.org/2000/svg">
<g clip-path="url(#clip0_480_33)">
<path fill-rule="evenodd" clip-rule="evenodd" d="M419.5 0C502.469 0 583.575 24.6032 652.562 70.6985C721.548 116.794 775.317 182.311 807.067 258.964C838.818 335.618 847.126 419.965 830.939 501.34C814.753 582.715 774.799 657.463 716.131 716.131C657.463 774.799 582.715 814.753 501.34 830.939C419.965 847.126 335.618 838.818 258.964 807.067C182.311 775.317 116.794 721.548 70.6985 652.562C24.6032 583.575 0 502.469 0 419.5C0 308.242 44.1972 201.54 122.869 122.869C201.54 44.1972 308.242 0 419.5 0Z" fill="white"/>
<path fill-rule="evenodd" clip-rule="evenodd" d="M618.038 473.434H545.937C542.001 473.416 538.232 471.839 535.456 469.05C532.679 466.26 531.12 462.485 531.12 458.549V260.884C531.138 256.954 532.703 253.188 535.476 250.403C538.248 247.617 542.006 246.035 545.937 246H618.038C621.98 246.018 625.756 247.592 628.543 250.379C631.331 253.167 632.905 256.942 632.923 260.884V458.549C632.905 462.491 631.331 466.267 628.543 469.054C625.756 471.842 621.98 473.416 618.038 473.434ZM428.908 621.665C421.124 661.403 356.124 624.806 351.822 560.829C350.862 538.088 352.72 515.315 357.353 493.029H264.426C225.849 491.459 192.12 463.806 215.949 418.402C210.487 398.601 209.668 375.386 224.416 366.169C222.572 334.966 231.243 315.575 247.425 300.281C247.733 286.039 251.936 272.154 259.579 260.133C272.074 242.517 282.179 246.478 301.843 246.478H458.882C483.735 246.478 497.254 253.305 513.505 273.789V448.785C466.325 461.28 441.471 525.257 428.908 567.248V621.87V621.665Z" fill="#A83333"/>
</g>
<defs>
<clipPath id="clip0_480_33">
<rect width="839" height="839" fill="white"/>
</clipPath>
</defs>
</svg>
